<mxfile host="app.diagrams.net" modified="2023-12-30T21:59:52.854Z" agent="Mozilla/5.0 (Windows NT 10.0; Win64; x64) AppleWebKit/537.36 (KHTML, like Gecko) Chrome/120.0.0.0 Safari/537.36" etag="NscVsl_D2rRFN5sZBX8n" version="22.1.16" type="github">
  <diagram name="Page-1" id="sVWEXl4TgUxWqywdL5_X">
    <mxGraphModel dx="372" dy="396" grid="1" gridSize="10" guides="1" tooltips="1" connect="1" arrows="1" fold="1" page="1" pageScale="1" pageWidth="850" pageHeight="1100" math="0" shadow="0">
      <root>
        <mxCell id="0" />
        <mxCell id="1" parent="0" />
        <mxCell id="G_GtU7pfIj8ECjrmxBhK-1" value="Loan Account" style="shape=umlLifeline;perimeter=lifelinePerimeter;whiteSpace=wrap;html=1;container=1;dropTarget=0;collapsible=0;recursiveResize=0;outlineConnect=0;portConstraint=eastwest;newEdgeStyle={&quot;curved&quot;:0,&quot;rounded&quot;:0};" vertex="1" parent="1">
          <mxGeometry x="60" y="40" width="100" height="300" as="geometry" />
        </mxCell>
        <mxCell id="G_GtU7pfIj8ECjrmxBhK-2" value="Notification" style="shape=umlLifeline;perimeter=lifelinePerimeter;whiteSpace=wrap;html=1;container=1;dropTarget=0;collapsible=0;recursiveResize=0;outlineConnect=0;portConstraint=eastwest;newEdgeStyle={&quot;curved&quot;:0,&quot;rounded&quot;:0};" vertex="1" parent="1">
          <mxGeometry x="250" y="40" width="100" height="300" as="geometry" />
        </mxCell>
        <mxCell id="G_GtU7pfIj8ECjrmxBhK-4" value="" style="html=1;points=[[0,0,0,0,5],[0,1,0,0,-5],[1,0,0,0,5],[1,1,0,0,-5]];perimeter=orthogonalPerimeter;outlineConnect=0;targetShapes=umlLifeline;portConstraint=eastwest;newEdgeStyle={&quot;curved&quot;:0,&quot;rounded&quot;:0};" vertex="1" parent="G_GtU7pfIj8ECjrmxBhK-2">
          <mxGeometry x="45" y="70" width="10" height="140" as="geometry" />
        </mxCell>
        <mxCell id="G_GtU7pfIj8ECjrmxBhK-3" value="CustomerServiceToolsInterfaces" style="shape=umlLifeline;perimeter=lifelinePerimeter;whiteSpace=wrap;html=1;container=1;dropTarget=0;collapsible=0;recursiveResize=0;outlineConnect=0;portConstraint=eastwest;newEdgeStyle={&quot;curved&quot;:0,&quot;rounded&quot;:0};" vertex="1" parent="1">
          <mxGeometry x="420" y="40" width="190" height="300" as="geometry" />
        </mxCell>
        <mxCell id="G_GtU7pfIj8ECjrmxBhK-5" value="Requests Payment Reminder" style="html=1;verticalAlign=bottom;endArrow=block;curved=0;rounded=0;" edge="1" parent="1" source="G_GtU7pfIj8ECjrmxBhK-1">
          <mxGeometry width="80" relative="1" as="geometry">
            <mxPoint x="180" y="110" as="sourcePoint" />
            <mxPoint x="295" y="110" as="targetPoint" />
          </mxGeometry>
        </mxCell>
        <mxCell id="G_GtU7pfIj8ECjrmxBhK-6" value="Fetches Reminder Template" style="html=1;verticalAlign=bottom;endArrow=block;curved=0;rounded=0;" edge="1" parent="1" target="G_GtU7pfIj8ECjrmxBhK-3">
          <mxGeometry width="80" relative="1" as="geometry">
            <mxPoint x="305" y="140" as="sourcePoint" />
            <mxPoint x="474.5" y="140" as="targetPoint" />
          </mxGeometry>
        </mxCell>
        <mxCell id="G_GtU7pfIj8ECjrmxBhK-7" value="&amp;nbsp;Provides Reminder Template" style="html=1;verticalAlign=bottom;endArrow=open;dashed=1;endSize=8;curved=0;rounded=0;" edge="1" parent="1" source="G_GtU7pfIj8ECjrmxBhK-3">
          <mxGeometry relative="1" as="geometry">
            <mxPoint x="474.5" y="170" as="sourcePoint" />
            <mxPoint x="305" y="170" as="targetPoint" />
          </mxGeometry>
        </mxCell>
        <mxCell id="G_GtU7pfIj8ECjrmxBhK-8" style="edgeStyle=orthogonalEdgeStyle;rounded=0;orthogonalLoop=1;jettySize=auto;html=1;curved=0;" edge="1" parent="1">
          <mxGeometry relative="1" as="geometry">
            <mxPoint x="305" y="190" as="sourcePoint" />
            <mxPoint x="305" y="230" as="targetPoint" />
            <Array as="points">
              <mxPoint x="305" y="200" />
              <mxPoint x="330" y="200" />
              <mxPoint x="330" y="230" />
            </Array>
          </mxGeometry>
        </mxCell>
        <mxCell id="G_GtU7pfIj8ECjrmxBhK-9" value="&amp;nbsp;Generates Payment Reminder Content" style="edgeLabel;html=1;align=center;verticalAlign=middle;resizable=0;points=[];" vertex="1" connectable="0" parent="G_GtU7pfIj8ECjrmxBhK-8">
          <mxGeometry x="0.5995" y="-1" relative="1" as="geometry">
            <mxPoint x="87" y="-39" as="offset" />
          </mxGeometry>
        </mxCell>
        <mxCell id="G_GtU7pfIj8ECjrmxBhK-11" value="Sends Payment Reminder Content" style="html=1;verticalAlign=bottom;endArrow=open;dashed=1;endSize=8;curved=0;rounded=0;" edge="1" parent="1" target="G_GtU7pfIj8ECjrmxBhK-1">
          <mxGeometry relative="1" as="geometry">
            <mxPoint x="299.5" y="250" as="sourcePoint" />
            <mxPoint x="130.05555555555554" y="250" as="targetPoint" />
          </mxGeometry>
        </mxCell>
      </root>
    </mxGraphModel>
  </diagram>
</mxfile>
